<svg width="18" height="18" xmlns="http://www.w3.org/2000/svg"><g fill="#A4AFBA" fill-rule="nonzero"><path d="M1.34 12.47l1.768-1.783-.294-.295a.421.421 0 0 1 0-.595l7.072-7.128a.413.413 0 0 1 .589 0l.294.297 1.768-1.782-.295-.297c-1.102-1.111-3.024-1.11-4.125 0L1.046 8.013a2.931 2.931 0 0 0-.854 2.08c0 .785.303 1.523.854 2.08l.295.296zM16.66 5.342l-1.767 1.781.295.298a.423.423 0 0 1 0 .593l-7.07 7.127a.415.415 0 0 1-.59 0l-.296-.296-1.767 1.782.295.297c.55.555 1.283.86 2.062.86.78 0 1.512-.305 2.063-.86l7.072-7.128a2.96 2.96 0 0 0 0-4.157l-.296-.297zM15.212.894l1.768 1.768-5.941 5.94L9.27 6.832zM6.962 9.21l1.768 1.767-5.94 5.94-1.768-1.768z"/></g></svg>