<svg width="20" height="20" xmlns="http://www.w3.org/2000/svg"><path d="M9.997.4h.006C15.295.4 19.6 4.706 19.6 10s-4.305 9.6-9.597 9.6a9.524 9.524 0 0 1-5.281-1.586l-3.69 1.18 1.196-3.567A9.53 9.53 0 0 1 .4 10C.4 4.706 4.705.4 9.997.4zm-2.68 4.876c-.186-.445-.327-.462-.61-.474a5.42 5.42 0 0 0-.32-.011c-.368 0-.751.107-.983.344-.282.288-.981.96-.981 2.337 0 1.377 1.004 2.709 1.14 2.895.14.186 1.957 3.053 4.778 4.222 2.206.914 2.861.83 3.363.722.733-.158 1.653-.7 1.885-1.355.23-.654.23-1.213.163-1.332-.068-.118-.254-.186-.536-.327-.282-.141-1.653-.818-1.913-.909-.254-.096-.496-.062-.688.21-.27.377-.536.761-.75.993-.17.18-.446.203-.677.107-.31-.13-1.18-.435-2.252-1.389-.83-.739-1.393-1.659-1.557-1.935-.163-.282-.017-.446.113-.598.141-.176.276-.3.417-.463.142-.164.22-.249.31-.44.097-.187.029-.379-.039-.52-.067-.14-.631-1.518-.863-2.077z" fill="#FFF" fill-rule="nonzero"/></svg>