<svg width="18" height="16" xmlns="http://www.w3.org/2000/svg"><g fill="#FFF" fill-rule="nonzero"><path d="M9 4.666a4.171 4.171 0 0 0-4.167 4.167A4.17 4.17 0 0 0 9 12.999a4.17 4.17 0 0 0 4.167-4.166A4.17 4.17 0 0 0 9 4.666zm0 6.667a2.503 2.503 0 0 1-2.5-2.5c0-1.379 1.122-2.5 2.5-2.5s2.5 1.121 2.5 2.5c0 1.378-1.122 2.5-2.5 2.5z"/><path d="M15.667 3h-2.888l-1.171-1.758A1.663 1.663 0 0 0 10.22.499H7.779c-.558 0-1.076.278-1.386.743L5.22 2.999H2.333C1.414 3 .667 3.747.667 4.666v9.167c0 .919.747 1.666 1.666 1.666h13.334c.919 0 1.666-.747 1.666-1.666V4.666c0-.92-.747-1.667-1.666-1.667zM2.333 13.832V4.666h3.78l1.666-2.5h2.442l1.667 2.5h3.779v9.167H2.334z"/></g></svg>