<?xml version="1.0" encoding="UTF-8"?>
<svg width="47px" height="32px" viewBox="0 0 47 32" version="1.1" xmlns="http://www.w3.org/2000/svg" xmlns:xlink="http://www.w3.org/1999/xlink">
    <!-- Generator: Sketch 48.2 (47327) - http://www.bohemiancoding.com/sketch -->
    <title>Group 14 Copy 14</title>
    <desc>Created with Sketch.</desc>
    <defs>
        <path d="M18.7352651,11.3324606 C18.6710974,11.3224391 15.8862086,11.3224391 10.3805987,11.3324606 C10.2733368,11.3324606 10.1863838,11.245631 10.1863838,11.1385212 C10.1863838,11.1287931 10.4137478,10.1316881 10.8684759,8.14720628 C10.9899228,7.61851064 11.46107,7.24373333 12.0042671,7.24373333 L24.1690089,7.24373333 L23.956732,8.30855758 L23.2297858,11.3324606 L22.958856,12.4615758 C22.4899242,14.4096 21.6152775,15.6662303 20.3318085,16.2300121 C19.7266349,16.4997818 18.9299655,16.6742303 17.9384986,16.7550061 C17.5101577,16.7953455 17.0039366,16.8212364 16.4198353,16.8357818 C15.9719758,16.8486788 15.3830192,16.8551758 14.6545192,16.8551758 L7.60762667,16.8551758 C6.82089995,16.8551758 5.58851387,16.8311339 3.91046843,16.7830503 C3.48159751,16.7707608 3.14390537,16.4136231 3.15621194,15.9853605 C3.15763382,15.9358796 3.16379521,15.8866483 3.17461182,15.8383399 L5.1040027,7.2214303 C5.96388907,3.70007273 7.99382295,1.93939394 11.1918622,1.93939394 L43.9187587,1.93939394 C43.9833222,1.93939394 44.0476339,1.94743106 44.1102062,1.96331938 C44.5260214,2.06890295 44.7773923,2.49110206 44.6716587,2.90632749 L43.4130455,7.84901818 C42.944405,9.79830303 40.9602087,11.3932606 39.0021343,11.3932606 L29.0305599,11.3932606 L27.7339814,16.7891394 L23.2086777,16.7891394 L25.5487727,7.18487273 L37.3003515,7.18487273 C38.794845,7.29271896 39.0494765,6.44101598 39.0928605,6.14765941 C39.1017703,6.0843692 39.1017703,6.05071515 39.1017703,6.05071515 L24.1096486,6.0072314 L11.6752342,6.0257349 C10.7738699,6.02707621 9.9918902,6.64752798 9.78688077,7.52402468 L8.74007448,11.9995372 C8.69128249,12.2081423 8.82107684,12.4167478 9.02997829,12.4654706 C9.04928611,12.4699738 11.5758535,12.4733624 16.6096804,12.4756364 C17.676238,12.4756364 18.3770491,12.6665509 18.7105822,11.4294303 C18.7230887,11.3820452 18.729244,11.3575215 18.7352651,11.3324606 Z" id="path-1"></path>
        <filter x="0.0%" y="0.0%" width="100.0%" height="100.0%" filterUnits="objectBoundingBox" id="filter-2">
            <feOffset dx="0" dy="0" in="SourceAlpha" result="shadowOffsetOuter1"></feOffset>
            <feColorMatrix values="0 0 0 0 0.717647059   0 0 0 0 0.141176471   0 0 0 0 0.133333333  0 0 0 1 0" type="matrix" in="shadowOffsetOuter1"></feColorMatrix>
        </filter>
    </defs>
    <g id="1600_artikel-video" stroke="none" stroke-width="1" fill="none" fill-rule="evenodd" transform="translate(-230.000000, -2908.000000)">
        <g id="Group-13" transform="translate(0.000000, 2685.000000)">
            <g id="Group-14-Copy-14" transform="translate(230.000000, 223.000000)">
                <polygon id="Fill-1" fill="#FEFEFE" points="12.4012025 21.7212121 14.7303244 21.7212121 13.3795599 27.3385697 18.6557955 27.3385697 18.1891942 29.2807758 10.5847107 29.2807758"></polygon>
                <path d="M3.42527066,24.7177697 L7.78859917,24.7177697 C8.08283471,24.7177697 8.27607851,24.5227636 8.37027273,24.1328485 C8.4652438,23.7362424 8.36609711,23.5379394 8.07263843,23.5379394 L3.70853306,23.5379394 L3.42527066,24.7177697 Z M2.76542562,27.4641455 L7.18090083,27.4641455 C7.57253512,27.4641455 7.82394628,27.2349091 7.93406612,26.7754667 C8.03496074,26.3570424 7.88531818,26.1486545 7.48678926,26.1486545 L3.07131405,26.1486545 L2.76542562,27.4641455 Z M1.8172686,21.7212121 L9.26463223,21.7212121 C10.6070455,21.7212121 11.1322996,22.3270788 10.8415599,23.5379394 C10.5834483,24.5822061 10.0883946,25.2157091 9.35707851,25.4382545 L9.34950413,25.4700606 C10.1665661,25.5880727 10.4330289,26.2424242 10.1463678,27.4331152 C9.8504814,28.6649212 8.95107231,29.2808727 7.44736364,29.2808727 L0,29.2808727 L1.8172686,21.7212121 Z" id="Fill-2" fill="#FEFEFE"></path>
                <path d="M31.609528,24.3597576 C32.0549598,22.5363394 33.1056623,21.6242424 34.7632862,21.6242424 L39.1166127,21.6242424 C40.3394867,21.6242424 41.1196478,21.8434909 41.4541829,22.2819879 C41.6037284,22.476897 41.681997,22.7313455 41.6911251,23.0443636 C41.691999,23.3020121 41.6432511,23.6359758 41.5441044,24.0467394 L39.2376086,24.057697 C39.2695569,23.6467394 39.0552408,23.4409697 38.59534,23.4409697 L35.7004701,23.4409697 C34.7145383,23.4409697 34.1017904,23.9388121 33.8630032,24.9345939 L33.5739143,26.1354667 C33.3502759,27.0685091 33.7311313,27.5345455 34.7170631,27.5345455 L37.5698854,27.5345455 C38.1364102,27.5345455 38.5028937,27.1864242 38.6702098,26.4902788 L35.7752429,26.4902788 L36.1518255,24.9237333 L36.2123234,24.6735515 L38.3474247,24.6735515 L41.4356354,24.6735515 L41.3750404,24.9237333 L40.9993317,26.4902788 L40.8581375,27.075103 C40.6160486,28.0843636 40.1621685,28.7354182 39.497371,29.0273939 C39.184685,29.1671273 38.7711044,29.257503 38.2575032,29.299297 C38.0356127,29.3202424 37.7741024,29.3336242 37.4715156,29.3411879 C37.238749,29.3478788 36.9335404,29.3512727 36.5561809,29.3512727 L32.9063978,29.3512727 C31.248871,29.3512727 30.6597201,28.3562667 31.1379743,26.364703 L31.609528,24.3597576 Z" id="Fill-4" fill="#FEFEFE"></path>
                <path d="M22.2166696,26.1353697 C22.0124526,26.9847273 22.3545621,27.4089697 23.2422212,27.4089697 L26.221089,27.4089697 C27.109622,27.4089697 27.6560456,26.9847273 27.8593886,26.1353697 L28.1738224,24.8299636 C28.3755146,23.987297 27.9913576,23.5664485 27.0188266,23.5664485 L24.2920497,23.5664485 C23.3203927,23.5664485 22.7327956,23.987297 22.5302295,24.8299636 L22.2166696,26.1353697 Z M20.2834547,24.3596606 C20.7214092,22.5363394 21.8704815,21.6242424 23.7305745,21.6242424 L28.5242832,21.6242424 C30.3987481,21.6242424 31.1165662,22.5363394 30.6778348,24.3596606 L30.135684,26.6157576 C29.6977295,28.4390788 28.5410828,29.3511758 26.6674919,29.3511758 L21.8737832,29.3511758 C20.0135931,29.3511758 19.3024753,28.4390788 19.7413039,26.6157576 L20.2834547,24.3596606 Z" id="Fill-6" fill="#FEFEFE"></path>
                <path d="M36.5765847,30.1772606 L37.4115145,30.1772606 L37.7571198,31.3125818 L38.640312,30.1772606 L39.4744649,30.1772606 L39.0573884,31.9411394 L38.5287355,31.9411394 L38.8240393,30.6913939 L37.8115971,31.9411394 L37.4052996,31.9411394 L36.9834649,30.6913939 L36.6881612,31.9411394 L36.1595083,31.9411394 L36.5765847,30.1772606 Z M34.2093967,31.2102788 C34.1624938,31.4086788 34.2428017,31.5075879 34.4503202,31.5075879 L35.1450269,31.5075879 C35.3525455,31.5075879 35.4797562,31.4086788 35.5266591,31.2102788 L35.598907,30.9060848 C35.6450331,30.7096242 35.5552087,30.6108121 35.3280744,30.6108121 L34.6918264,30.6108121 C34.4652748,30.6108121 34.3285475,30.7096242 34.2815475,30.9060848 L34.2093967,31.2102788 Z M33.7569731,30.7964121 C33.8576736,30.3710061 34.1251074,30.1575758 34.5591777,30.1575758 L35.6777583,30.1575758 C36.1152273,30.1575758 36.2833202,30.3710061 36.1826198,30.7964121 L36.0581281,31.3226667 C35.9574277,31.7480727 35.6880517,31.9608242 35.2511653,31.9608242 L34.1324876,31.9608242 C33.6984174,31.9608242 33.531781,31.7480727 33.6324814,31.3226667 L33.7569731,30.7964121 Z M31.9844711,30.6108121 C31.9321302,30.6108121 31.8850331,30.6283636 31.8422087,30.6622061 C31.8048223,30.6961455 31.7789917,30.7401697 31.7647169,30.7936 L31.6368264,31.3348848 C31.6300289,31.3897697 31.6375062,31.4290424 31.6578988,31.4513455 C31.6864483,31.4839273 31.7251942,31.5028364 31.7742335,31.5075879 L33.3412562,31.5075879 C33.3290207,31.5597576 33.3127066,31.6037818 33.2929938,31.6389818 C33.2574525,31.7060848 33.1949153,31.7764848 33.1057707,31.8510545 C33.011188,31.9241697 32.8744607,31.9614061 32.694812,31.9634424 L31.5327273,31.9608242 C31.3333657,31.9547152 31.1951818,31.9079758 31.117593,31.8218667 C31.0359256,31.7324606 31.0134938,31.6098909 31.0502975,31.4540606 L31.2380062,30.6622061 C31.2748099,30.5078303 31.3557004,30.3845818 31.4823285,30.2917818 C31.6055579,30.2043152 31.7639401,30.1596121 31.957281,30.1575758 L33.1316012,30.1575758 C33.2670661,30.1575758 33.3800021,30.2063515 33.4691467,30.303903 C33.5147872,30.3526788 33.5433368,30.419103 33.5542128,30.5037576 C33.5568347,30.5606788 33.5568347,30.5965576 33.5535331,30.6108121 L31.9844711,30.6108121 Z M30.3181074,31.4445576 L30.8052955,31.4445576 L30.6876012,31.9411394 L30.2004132,31.9411394 L30.3181074,31.4445576 Z" id="Fill-8" fill="#FEFEFE"></path>
                <path d="M3.83580324,18.7211017 C3.53594646,18.7124945 2.93108915,18.704401 2.02123129,18.6968213 L2.02123128,18.6968222 C1.37859451,18.6914686 0.861974391,18.1661686 0.867327953,17.5235319 C0.86792352,17.4520404 0.875106445,17.380756 0.888785601,17.310583 C1.11402354,16.1551288 1.2344481,15.5392882 1.25005927,15.463061 C1.64633349,13.5281086 1.99795057,11.9220835 2.30574648,10.6422392 L3.2131928,6.77858961 C4.2803652,2.40804331 7.05599892,-2.87161794e-06 11.1918844,-2.87161794e-06 L43.9187461,-2.87161794e-06 C44.0307898,-2.87161794e-06 44.6422895,-2.87161793e-06 45.7532454,-2.87161791e-06 L45.7532454,-4.56597107e-06 C46.3959049,-4.56597105e-06 46.9168834,0.520973938 46.9168834,1.16363349 C46.9168834,1.21719369 46.9131855,1.27068999 46.9058161,1.32374078 C46.7675592,2.319016 46.6502517,3.00585743 46.5538936,3.38426506 L45.2981612,8.31564821 C44.6159622,11.1227986 41.8613624,13.3326537 39.002127,13.3326537 L30.5618204,13.3326537 L29.3722692,18.2833996 C29.309509,18.5445846 29.0761173,18.7288651 28.8074982,18.7293293 C13.2852414,18.7561527 4.9613431,18.7534101 3.83580324,18.7211017 Z" id="Combined-Shape" fill="#E52E2B"></path>
                <g id="Combined-Shape">
                    <use fill="black" fill-opacity="1" filter="url(#filter-2)" xlink:href="#path-1"></use>
                    <use fill="#FFFFFF" fill-rule="evenodd" xlink:href="#path-1"></use>
                </g>
            </g>
        </g>
    </g>
</svg>